<mxfile host="Electron" agent="Mozilla/5.0 (Windows NT 10.0; Win64; x64) AppleWebKit/537.36 (KHTML, like Gecko) draw.io/24.7.17 Chrome/128.0.6613.36 Electron/32.0.1 Safari/537.36" version="24.7.17">
  <diagram name="Pagina-1" id="TnRvqajBCi5-kiuCq8Gu">
    <mxGraphModel dx="676" dy="391" grid="1" gridSize="10" guides="1" tooltips="1" connect="1" arrows="1" fold="1" page="1" pageScale="1" pageWidth="827" pageHeight="1169" math="0" shadow="0">
      <root>
        <mxCell id="0" />
        <mxCell id="1" parent="0" />
        <mxCell id="INnHV-x7ZfGLVXM0BavU-3" style="edgeStyle=orthogonalEdgeStyle;rounded=0;orthogonalLoop=1;jettySize=auto;html=1;entryX=0;entryY=0.5;entryDx=0;entryDy=0;" edge="1" parent="1" source="INnHV-x7ZfGLVXM0BavU-1" target="INnHV-x7ZfGLVXM0BavU-2">
          <mxGeometry relative="1" as="geometry">
            <Array as="points">
              <mxPoint x="360" y="420" />
            </Array>
          </mxGeometry>
        </mxCell>
        <mxCell id="INnHV-x7ZfGLVXM0BavU-15" style="edgeStyle=orthogonalEdgeStyle;rounded=0;orthogonalLoop=1;jettySize=auto;html=1;" edge="1" parent="1">
          <mxGeometry relative="1" as="geometry">
            <mxPoint x="350" y="400" as="sourcePoint" />
            <mxPoint x="350" y="482" as="targetPoint" />
          </mxGeometry>
        </mxCell>
        <mxCell id="INnHV-x7ZfGLVXM0BavU-1" value="Analisi&amp;nbsp;&lt;span style=&quot;background-color: initial; font-size: 11px;&quot;&gt;dei requisiti&lt;/span&gt;" style="rounded=1;whiteSpace=wrap;html=1;fillColor=none;strokeColor=#6c8ebf;fontSize=11;" vertex="1" parent="1">
          <mxGeometry x="320" y="360" width="80" height="40" as="geometry" />
        </mxCell>
        <mxCell id="INnHV-x7ZfGLVXM0BavU-13" style="edgeStyle=orthogonalEdgeStyle;rounded=0;orthogonalLoop=1;jettySize=auto;html=1;entryX=0.5;entryY=0;entryDx=0;entryDy=0;" edge="1" parent="1">
          <mxGeometry relative="1" as="geometry">
            <mxPoint x="470" y="440" as="sourcePoint" />
            <mxPoint x="470" y="524" as="targetPoint" />
          </mxGeometry>
        </mxCell>
        <mxCell id="INnHV-x7ZfGLVXM0BavU-2" value="Specifica&amp;nbsp;&lt;span style=&quot;background-color: initial; font-size: 11px;&quot;&gt;dei requisiti&lt;/span&gt;" style="rounded=1;whiteSpace=wrap;html=1;fillColor=none;strokeColor=#6c8ebf;fontSize=11;" vertex="1" parent="1">
          <mxGeometry x="440" y="400" width="80" height="40" as="geometry" />
        </mxCell>
        <mxCell id="INnHV-x7ZfGLVXM0BavU-4" style="edgeStyle=orthogonalEdgeStyle;rounded=0;orthogonalLoop=1;jettySize=auto;html=1;entryX=1.029;entryY=0.442;entryDx=0;entryDy=0;entryPerimeter=0;" edge="1" parent="1" source="INnHV-x7ZfGLVXM0BavU-2" target="INnHV-x7ZfGLVXM0BavU-1">
          <mxGeometry relative="1" as="geometry">
            <Array as="points">
              <mxPoint x="480" y="378" />
            </Array>
          </mxGeometry>
        </mxCell>
        <mxCell id="INnHV-x7ZfGLVXM0BavU-6" style="edgeStyle=orthogonalEdgeStyle;rounded=0;orthogonalLoop=1;jettySize=auto;html=1;entryX=0;entryY=0.5;entryDx=0;entryDy=0;exitX=0.5;exitY=1;exitDx=0;exitDy=0;" edge="1" parent="1" target="INnHV-x7ZfGLVXM0BavU-7" source="INnHV-x7ZfGLVXM0BavU-2">
          <mxGeometry relative="1" as="geometry">
            <mxPoint x="480" y="442" as="sourcePoint" />
            <Array as="points">
              <mxPoint x="480" y="462" />
            </Array>
          </mxGeometry>
        </mxCell>
        <mxCell id="INnHV-x7ZfGLVXM0BavU-14" style="edgeStyle=orthogonalEdgeStyle;rounded=0;orthogonalLoop=1;jettySize=auto;html=1;entryX=0.5;entryY=0;entryDx=0;entryDy=0;" edge="1" parent="1">
          <mxGeometry relative="1" as="geometry">
            <mxPoint x="590" y="482" as="sourcePoint" />
            <mxPoint x="590" y="566" as="targetPoint" />
          </mxGeometry>
        </mxCell>
        <mxCell id="INnHV-x7ZfGLVXM0BavU-7" value="Validazione&amp;nbsp;&lt;span style=&quot;background-color: initial; font-size: 11px;&quot;&gt;dei requisiti&lt;/span&gt;" style="rounded=1;whiteSpace=wrap;html=1;fillColor=none;strokeColor=#6c8ebf;fontSize=11;" vertex="1" parent="1">
          <mxGeometry x="560" y="442" width="80" height="40" as="geometry" />
        </mxCell>
        <mxCell id="INnHV-x7ZfGLVXM0BavU-8" style="edgeStyle=orthogonalEdgeStyle;rounded=0;orthogonalLoop=1;jettySize=auto;html=1;entryX=1.029;entryY=0.442;entryDx=0;entryDy=0;entryPerimeter=0;" edge="1" parent="1" source="INnHV-x7ZfGLVXM0BavU-7">
          <mxGeometry relative="1" as="geometry">
            <mxPoint x="522" y="420" as="targetPoint" />
            <Array as="points">
              <mxPoint x="600" y="420" />
            </Array>
          </mxGeometry>
        </mxCell>
        <mxCell id="INnHV-x7ZfGLVXM0BavU-9" value="Descrizione del sistema" style="rounded=0;whiteSpace=wrap;html=1;fillColor=none;strokeColor=#6c8ebf;" vertex="1" parent="1">
          <mxGeometry x="300" y="482" width="120" height="38" as="geometry" />
        </mxCell>
        <mxCell id="INnHV-x7ZfGLVXM0BavU-11" value="Requisiti del sistema e dell&#39;utente" style="rounded=0;whiteSpace=wrap;html=1;fillColor=none;strokeColor=#6c8ebf;" vertex="1" parent="1">
          <mxGeometry x="420" y="524" width="120" height="38" as="geometry" />
        </mxCell>
        <mxCell id="INnHV-x7ZfGLVXM0BavU-12" value="Documento dei requisiti" style="rounded=0;whiteSpace=wrap;html=1;fillColor=none;strokeColor=#6c8ebf;" vertex="1" parent="1">
          <mxGeometry x="540" y="566" width="120" height="38" as="geometry" />
        </mxCell>
      </root>
    </mxGraphModel>
  </diagram>
</mxfile>
